<svg width="80" height="23" viewBox="0 0 80 23" fill="none" xmlns="http://www.w3.org/2000/svg">
<path d="M16.81 6.97L16.39 10.99L5.38 14.47V14.53L15.64 18.01L15.22 22.03L0.19 16.63L0.64 12.37L16.81 6.97ZM18.4647 22.6L27.8847 0.399999H31.7847L22.3647 22.6H18.4647ZM31.6352 19.12L39.0152 10.57V10.51H32.8352L33.1952 7H44.7752L44.4752 9.88L37.0952 18.43V18.49H43.5752L43.2152 22H31.3352L31.6352 19.12ZM52.1127 10.51L51.2727 18.49H58.7127L58.3527 22H50.2827L47.0127 19.99L48.1527 9.01L51.8427 7H59.9127L59.5527 10.51H52.1127ZM63.6822 10.99L64.1022 6.97L79.1322 12.37L78.6822 16.63L62.5122 22.03L62.9322 18.01L73.9722 14.53V14.47L63.6822 10.99Z" fill="black"/>
</svg>
